<mxfile host="app.diagrams.net" agent="Mozilla/5.0 (Windows NT 10.0; Win64; x64) AppleWebKit/537.36 (KHTML, like Gecko) Chrome/134.0.0.0 Safari/537.36 OPR/119.0.0.0 (Edition std-2)" version="27.2.0">
  <diagram name="PÃ¡gina-1" id="x6wV84RPgrvfvhEwiL0w">
    <mxGraphModel grid="1" page="1" gridSize="10" guides="1" tooltips="1" connect="1" arrows="1" fold="1" pageScale="1" pageWidth="9999" pageHeight="9999" background="#ffffff" math="0" shadow="0">
      <root>
        <mxCell id="0" />
        <mxCell id="1" parent="0" />
        <mxCell id="SrfD6AW7B3wNPBuTBkw3-1" value="Usuario" style="shape=umlLifeline;perimeter=lifelinePerimeter;whiteSpace=wrap;container=1;dropTarget=0;collapsible=0;recursiveResize=0;outlineConnect=0;portConstraint=eastwest;newEdgeStyle={&quot;edgeStyle&quot;:&quot;elbowEdgeStyle&quot;,&quot;elbow&quot;:&quot;vertical&quot;,&quot;curved&quot;:0,&quot;rounded&quot;:0};participant=umlActor;verticalAlign=bottom;labelPosition=center;verticalLabelPosition=top;align=center;size=64.9998779296875;" vertex="1" parent="1">
          <mxGeometry x="300" y="110" width="35" height="2039" as="geometry" />
        </mxCell>
        <mxCell id="SrfD6AW7B3wNPBuTBkw3-2" value="Page" style="shape=umlLifeline;perimeter=lifelinePerimeter;whiteSpace=wrap;container=1;dropTarget=0;collapsible=0;recursiveResize=0;outlineConnect=0;portConstraint=eastwest;newEdgeStyle={&quot;edgeStyle&quot;:&quot;elbowEdgeStyle&quot;,&quot;elbow&quot;:&quot;vertical&quot;,&quot;curved&quot;:0,&quot;rounded&quot;:0};size=65;" vertex="1" parent="1">
          <mxGeometry x="500" y="110" width="150" height="2039" as="geometry" />
        </mxCell>
        <mxCell id="SrfD6AW7B3wNPBuTBkw3-3" value="GVM" style="shape=umlLifeline;perimeter=lifelinePerimeter;whiteSpace=wrap;container=1;dropTarget=0;collapsible=0;recursiveResize=0;outlineConnect=0;portConstraint=eastwest;newEdgeStyle={&quot;edgeStyle&quot;:&quot;elbowEdgeStyle&quot;,&quot;elbow&quot;:&quot;vertical&quot;,&quot;curved&quot;:0,&quot;rounded&quot;:0};size=65;" vertex="1" parent="1">
          <mxGeometry x="700" y="110" width="150" height="2039" as="geometry" />
        </mxCell>
        <mxCell id="SrfD6AW7B3wNPBuTBkw3-4" value="PersonagemRepo" style="shape=umlLifeline;perimeter=lifelinePerimeter;whiteSpace=wrap;container=1;dropTarget=0;collapsible=0;recursiveResize=0;outlineConnect=0;portConstraint=eastwest;newEdgeStyle={&quot;edgeStyle&quot;:&quot;elbowEdgeStyle&quot;,&quot;elbow&quot;:&quot;vertical&quot;,&quot;curved&quot;:0,&quot;rounded&quot;:0};size=65;" vertex="1" parent="1">
          <mxGeometry x="900" y="110" width="150" height="2039" as="geometry" />
        </mxCell>
        <mxCell id="SrfD6AW7B3wNPBuTBkw3-5" value="InimigoRepo" style="shape=umlLifeline;perimeter=lifelinePerimeter;whiteSpace=wrap;container=1;dropTarget=0;collapsible=0;recursiveResize=0;outlineConnect=0;portConstraint=eastwest;newEdgeStyle={&quot;edgeStyle&quot;:&quot;elbowEdgeStyle&quot;,&quot;elbow&quot;:&quot;vertical&quot;,&quot;curved&quot;:0,&quot;rounded&quot;:0};size=65;" vertex="1" parent="1">
          <mxGeometry x="1100" y="110" width="150" height="2039" as="geometry" />
        </mxCell>
        <mxCell id="SrfD6AW7B3wNPBuTBkw3-6" value="GrupoRepo" style="shape=umlLifeline;perimeter=lifelinePerimeter;whiteSpace=wrap;container=1;dropTarget=0;collapsible=0;recursiveResize=0;outlineConnect=0;portConstraint=eastwest;newEdgeStyle={&quot;edgeStyle&quot;:&quot;elbowEdgeStyle&quot;,&quot;elbow&quot;:&quot;vertical&quot;,&quot;curved&quot;:0,&quot;rounded&quot;:0};size=65;" vertex="1" parent="1">
          <mxGeometry x="1300" y="110" width="150" height="2039" as="geometry" />
        </mxCell>
        <mxCell id="SrfD6AW7B3wNPBuTBkw3-7" value="Page" style="shape=umlLifeline;perimeter=lifelinePerimeter;whiteSpace=wrap;container=1;dropTarget=0;collapsible=0;recursiveResize=0;outlineConnect=0;portConstraint=eastwest;newEdgeStyle={&quot;edgeStyle&quot;:&quot;elbowEdgeStyle&quot;,&quot;elbow&quot;:&quot;vertical&quot;,&quot;curved&quot;:0,&quot;rounded&quot;:0};size=65;" vertex="1" parent="1">
          <mxGeometry x="1540" y="110" width="150" height="2039" as="geometry" />
        </mxCell>
        <mxCell id="SrfD6AW7B3wNPBuTBkw3-8" value="" style="points=[];perimeter=orthogonalPerimeter;outlineConnect=0;targetShapes=umlLifeline;portConstraint=eastwest;newEdgeStyle={&quot;edgeStyle&quot;:&quot;elbowEdgeStyle&quot;,&quot;elbow&quot;:&quot;vertical&quot;,&quot;curved&quot;:0,&quot;rounded&quot;:0}" vertex="1" parent="SrfD6AW7B3wNPBuTBkw3-7">
          <mxGeometry x="70" y="587" width="10" height="698" as="geometry" />
        </mxCell>
        <mxCell id="SrfD6AW7B3wNPBuTBkw3-9" value="" style="points=[];perimeter=orthogonalPerimeter;outlineConnect=0;targetShapes=umlLifeline;portConstraint=eastwest;newEdgeStyle={&quot;edgeStyle&quot;:&quot;elbowEdgeStyle&quot;,&quot;elbow&quot;:&quot;vertical&quot;,&quot;curved&quot;:0,&quot;rounded&quot;:0}" vertex="1" parent="SrfD6AW7B3wNPBuTBkw3-7">
          <mxGeometry x="70" y="1226" width="10" height="698" as="geometry" />
        </mxCell>
        <mxCell id="SrfD6AW7B3wNPBuTBkw3-10" value="GVM" style="shape=umlLifeline;perimeter=lifelinePerimeter;whiteSpace=wrap;container=1;dropTarget=0;collapsible=0;recursiveResize=0;outlineConnect=0;portConstraint=eastwest;newEdgeStyle={&quot;edgeStyle&quot;:&quot;elbowEdgeStyle&quot;,&quot;elbow&quot;:&quot;vertical&quot;,&quot;curved&quot;:0,&quot;rounded&quot;:0};size=65;" vertex="1" parent="1">
          <mxGeometry x="1941" y="110" width="150" height="2039" as="geometry" />
        </mxCell>
        <mxCell id="SrfD6AW7B3wNPBuTBkw3-11" value="" style="points=[];perimeter=orthogonalPerimeter;outlineConnect=0;targetShapes=umlLifeline;portConstraint=eastwest;newEdgeStyle={&quot;edgeStyle&quot;:&quot;elbowEdgeStyle&quot;,&quot;elbow&quot;:&quot;vertical&quot;,&quot;curved&quot;:0,&quot;rounded&quot;:0}" vertex="1" parent="SrfD6AW7B3wNPBuTBkw3-10">
          <mxGeometry x="70" y="254" width="10" height="245" as="geometry" />
        </mxCell>
        <mxCell id="SrfD6AW7B3wNPBuTBkw3-12" value="" style="points=[];perimeter=orthogonalPerimeter;outlineConnect=0;targetShapes=umlLifeline;portConstraint=eastwest;newEdgeStyle={&quot;edgeStyle&quot;:&quot;elbowEdgeStyle&quot;,&quot;elbow&quot;:&quot;vertical&quot;,&quot;curved&quot;:0,&quot;rounded&quot;:0}" vertex="1" parent="SrfD6AW7B3wNPBuTBkw3-10">
          <mxGeometry x="70" y="991" width="10" height="284" as="geometry" />
        </mxCell>
        <mxCell id="SrfD6AW7B3wNPBuTBkw3-13" value="" style="points=[];perimeter=orthogonalPerimeter;outlineConnect=0;targetShapes=umlLifeline;portConstraint=eastwest;newEdgeStyle={&quot;edgeStyle&quot;:&quot;elbowEdgeStyle&quot;,&quot;elbow&quot;:&quot;vertical&quot;,&quot;curved&quot;:0,&quot;rounded&quot;:0}" vertex="1" parent="SrfD6AW7B3wNPBuTBkw3-10">
          <mxGeometry x="70" y="1630" width="10" height="284" as="geometry" />
        </mxCell>
        <mxCell id="SrfD6AW7B3wNPBuTBkw3-14" value="GrupoRepo" style="shape=umlLifeline;perimeter=lifelinePerimeter;whiteSpace=wrap;container=1;dropTarget=0;collapsible=0;recursiveResize=0;outlineConnect=0;portConstraint=eastwest;newEdgeStyle={&quot;edgeStyle&quot;:&quot;elbowEdgeStyle&quot;,&quot;elbow&quot;:&quot;vertical&quot;,&quot;curved&quot;:0,&quot;rounded&quot;:0};size=65;" vertex="1" parent="1">
          <mxGeometry x="2398" y="110" width="150" height="2039" as="geometry" />
        </mxCell>
        <mxCell id="SrfD6AW7B3wNPBuTBkw3-15" value="" style="points=[];perimeter=orthogonalPerimeter;outlineConnect=0;targetShapes=umlLifeline;portConstraint=eastwest;newEdgeStyle={&quot;edgeStyle&quot;:&quot;elbowEdgeStyle&quot;,&quot;elbow&quot;:&quot;vertical&quot;,&quot;curved&quot;:0,&quot;rounded&quot;:0}" vertex="1" parent="SrfD6AW7B3wNPBuTBkw3-14">
          <mxGeometry x="70" y="306" width="10" height="52" as="geometry" />
        </mxCell>
        <mxCell id="SrfD6AW7B3wNPBuTBkw3-16" value="" style="points=[];perimeter=orthogonalPerimeter;outlineConnect=0;targetShapes=umlLifeline;portConstraint=eastwest;newEdgeStyle={&quot;edgeStyle&quot;:&quot;elbowEdgeStyle&quot;,&quot;elbow&quot;:&quot;vertical&quot;,&quot;curved&quot;:0,&quot;rounded&quot;:0}" vertex="1" parent="SrfD6AW7B3wNPBuTBkw3-14">
          <mxGeometry x="70" y="1092" width="10" height="42" as="geometry" />
        </mxCell>
        <mxCell id="SrfD6AW7B3wNPBuTBkw3-17" value="" style="points=[];perimeter=orthogonalPerimeter;outlineConnect=0;targetShapes=umlLifeline;portConstraint=eastwest;newEdgeStyle={&quot;edgeStyle&quot;:&quot;elbowEdgeStyle&quot;,&quot;elbow&quot;:&quot;vertical&quot;,&quot;curved&quot;:0,&quot;rounded&quot;:0}" vertex="1" parent="SrfD6AW7B3wNPBuTBkw3-14">
          <mxGeometry x="70" y="1731" width="10" height="42" as="geometry" />
        </mxCell>
        <mxCell id="SrfD6AW7B3wNPBuTBkw3-18" value="PersonagemRepo" style="shape=umlLifeline;perimeter=lifelinePerimeter;whiteSpace=wrap;container=1;dropTarget=0;collapsible=0;recursiveResize=0;outlineConnect=0;portConstraint=eastwest;newEdgeStyle={&quot;edgeStyle&quot;:&quot;elbowEdgeStyle&quot;,&quot;elbow&quot;:&quot;vertical&quot;,&quot;curved&quot;:0,&quot;rounded&quot;:0};size=65;" vertex="1" parent="1">
          <mxGeometry x="2598" y="110" width="150" height="2039" as="geometry" />
        </mxCell>
        <mxCell id="SrfD6AW7B3wNPBuTBkw3-19" value="" style="points=[];perimeter=orthogonalPerimeter;outlineConnect=0;targetShapes=umlLifeline;portConstraint=eastwest;newEdgeStyle={&quot;edgeStyle&quot;:&quot;elbowEdgeStyle&quot;,&quot;elbow&quot;:&quot;vertical&quot;,&quot;curved&quot;:0,&quot;rounded&quot;:0}" vertex="1" parent="SrfD6AW7B3wNPBuTBkw3-18">
          <mxGeometry x="70" y="783" width="10" height="52" as="geometry" />
        </mxCell>
        <mxCell id="SrfD6AW7B3wNPBuTBkw3-20" value="InimigoRepo" style="shape=umlLifeline;perimeter=lifelinePerimeter;whiteSpace=wrap;container=1;dropTarget=0;collapsible=0;recursiveResize=0;outlineConnect=0;portConstraint=eastwest;newEdgeStyle={&quot;edgeStyle&quot;:&quot;elbowEdgeStyle&quot;,&quot;elbow&quot;:&quot;vertical&quot;,&quot;curved&quot;:0,&quot;rounded&quot;:0};size=65;" vertex="1" parent="1">
          <mxGeometry x="2798" y="110" width="150" height="2039" as="geometry" />
        </mxCell>
        <mxCell id="SrfD6AW7B3wNPBuTBkw3-21" value="" style="points=[];perimeter=orthogonalPerimeter;outlineConnect=0;targetShapes=umlLifeline;portConstraint=eastwest;newEdgeStyle={&quot;edgeStyle&quot;:&quot;elbowEdgeStyle&quot;,&quot;elbow&quot;:&quot;vertical&quot;,&quot;curved&quot;:0,&quot;rounded&quot;:0}" vertex="1" parent="SrfD6AW7B3wNPBuTBkw3-20">
          <mxGeometry x="70" y="1422" width="10" height="52" as="geometry" />
        </mxCell>
        <mxCell id="SrfD6AW7B3wNPBuTBkw3-22" value="alt" style="shape=umlFrame;dashed=1;pointerEvents=0;dropTarget=0;strokeColor=#B3B3B3;height=20;width=30" vertex="1" parent="1">
          <mxGeometry x="364" y="766" width="2524" height="1278" as="geometry" />
        </mxCell>
        <mxCell id="SrfD6AW7B3wNPBuTBkw3-23" value="[Escolhe &quot;Novo Grupo de Personagens&quot;]" style="text;strokeColor=none;fillColor=none;align=center;verticalAlign=middle;whiteSpace=wrap;" vertex="1" parent="SrfD6AW7B3wNPBuTBkw3-22">
          <mxGeometry x="30" width="2494" height="20" as="geometry" />
        </mxCell>
        <mxCell id="SrfD6AW7B3wNPBuTBkw3-24" value="[Escolhe &quot;Novo Grupo de Inimigos&quot;]" style="shape=line;dashed=1;whiteSpace=wrap;verticalAlign=top;labelPosition=center;verticalLabelPosition=middle;align=center;strokeColor=#B3B3B3;" vertex="1" parent="SrfD6AW7B3wNPBuTBkw3-22">
          <mxGeometry y="644" width="2524" height="4" as="geometry" />
        </mxCell>
        <mxCell id="SrfD6AW7B3wNPBuTBkw3-25" value="alt" style="shape=umlFrame;dashed=1;pointerEvents=0;dropTarget=0;strokeColor=#B3B3B3;height=20;width=30" vertex="1" parent="1">
          <mxGeometry x="354" y="234" width="2544" height="1820" as="geometry" />
        </mxCell>
        <mxCell id="SrfD6AW7B3wNPBuTBkw3-26" value="[O UsuÃ¡rio clica para DELETAR um grupo existente]" style="text;strokeColor=none;fillColor=none;align=center;verticalAlign=middle;whiteSpace=wrap;" vertex="1" parent="SrfD6AW7B3wNPBuTBkw3-25">
          <mxGeometry x="30" width="2514" height="20" as="geometry" />
        </mxCell>
        <mxCell id="SrfD6AW7B3wNPBuTBkw3-27" value="[O UsuÃ¡rio clica para CRIAR um novo grupo]" style="shape=line;dashed=1;whiteSpace=wrap;verticalAlign=top;labelPosition=center;verticalLabelPosition=middle;align=center;strokeColor=#B3B3B3;" vertex="1" parent="SrfD6AW7B3wNPBuTBkw3-25">
          <mxGeometry y="390" width="2544" height="4" as="geometry" />
        </mxCell>
        <mxCell id="SrfD6AW7B3wNPBuTBkw3-28" value="clica em Deletar(grupoId)" style="verticalAlign=bottom;edgeStyle=elbowEdgeStyle;elbow=vertical;curved=0;rounded=0;endArrow=block;" edge="1" parent="1" source="SrfD6AW7B3wNPBuTBkw3-1" target="SrfD6AW7B3wNPBuTBkw3-7">
          <mxGeometry relative="1" as="geometry">
            <Array as="points">
              <mxPoint x="1004" y="312" />
            </Array>
          </mxGeometry>
        </mxCell>
        <mxCell id="SrfD6AW7B3wNPBuTBkw3-29" value="deleteGrupo(grupoId)" style="verticalAlign=bottom;edgeStyle=elbowEdgeStyle;elbow=vertical;curved=0;rounded=0;endArrow=block;" edge="1" parent="1" source="SrfD6AW7B3wNPBuTBkw3-7" target="SrfD6AW7B3wNPBuTBkw3-11">
          <mxGeometry relative="1" as="geometry">
            <Array as="points">
              <mxPoint x="1824" y="364" />
            </Array>
          </mxGeometry>
        </mxCell>
        <mxCell id="SrfD6AW7B3wNPBuTBkw3-30" value="delete(grupoId)" style="verticalAlign=bottom;edgeStyle=elbowEdgeStyle;elbow=vertical;curved=0;rounded=0;endArrow=block;" edge="1" parent="1" source="SrfD6AW7B3wNPBuTBkw3-11" target="SrfD6AW7B3wNPBuTBkw3-15">
          <mxGeometry relative="1" as="geometry">
            <Array as="points">
              <mxPoint x="2255" y="416" />
            </Array>
          </mxGeometry>
        </mxCell>
        <mxCell id="SrfD6AW7B3wNPBuTBkw3-31" value="void" style="verticalAlign=bottom;edgeStyle=elbowEdgeStyle;elbow=vertical;curved=0;rounded=0;dashed=1;dashPattern=2 3;endArrow=block;" edge="1" parent="1" source="SrfD6AW7B3wNPBuTBkw3-15" target="SrfD6AW7B3wNPBuTBkw3-11">
          <mxGeometry relative="1" as="geometry">
            <Array as="points">
              <mxPoint x="2256" y="468" />
            </Array>
          </mxGeometry>
        </mxCell>
        <mxCell id="SrfD6AW7B3wNPBuTBkw3-32" value="fetchTodosOsGrupos()" style="curved=1;endArrow=block;rounded=0;" edge="1" parent="1" source="SrfD6AW7B3wNPBuTBkw3-11" target="SrfD6AW7B3wNPBuTBkw3-11">
          <mxGeometry relative="1" as="geometry">
            <Array as="points">
              <mxPoint x="2071" y="520" />
              <mxPoint x="2071" y="550" />
            </Array>
          </mxGeometry>
        </mxCell>
        <mxCell id="SrfD6AW7B3wNPBuTBkw3-33" value="clica no botÃ£o &#39;+&#39;" style="verticalAlign=bottom;edgeStyle=elbowEdgeStyle;elbow=vertical;curved=0;rounded=0;endArrow=block;" edge="1" parent="1" source="SrfD6AW7B3wNPBuTBkw3-1" target="SrfD6AW7B3wNPBuTBkw3-8">
          <mxGeometry relative="1" as="geometry">
            <Array as="points">
              <mxPoint x="1004" y="697" />
            </Array>
          </mxGeometry>
        </mxCell>
        <mxCell id="SrfD6AW7B3wNPBuTBkw3-34" value="getAll()" style="verticalAlign=bottom;edgeStyle=elbowEdgeStyle;elbow=vertical;curved=0;rounded=0;endArrow=block;" edge="1" parent="1" source="SrfD6AW7B3wNPBuTBkw3-8" target="SrfD6AW7B3wNPBuTBkw3-19">
          <mxGeometry relative="1" as="geometry">
            <Array as="points">
              <mxPoint x="2155" y="893" />
            </Array>
          </mxGeometry>
        </mxCell>
        <mxCell id="SrfD6AW7B3wNPBuTBkw3-35" value="listaDePersonagens" style="verticalAlign=bottom;edgeStyle=elbowEdgeStyle;elbow=vertical;curved=0;rounded=0;dashed=1;dashPattern=2 3;endArrow=block;" edge="1" parent="1" source="SrfD6AW7B3wNPBuTBkw3-19" target="SrfD6AW7B3wNPBuTBkw3-8">
          <mxGeometry relative="1" as="geometry">
            <Array as="points">
              <mxPoint x="2156" y="945" />
            </Array>
          </mxGeometry>
        </mxCell>
        <mxCell id="SrfD6AW7B3wNPBuTBkw3-36" value="preencheNome() e selecionaMembros()" style="verticalAlign=bottom;edgeStyle=elbowEdgeStyle;elbow=vertical;curved=0;rounded=0;endArrow=block;" edge="1" parent="1" source="SrfD6AW7B3wNPBuTBkw3-1" target="SrfD6AW7B3wNPBuTBkw3-8">
          <mxGeometry relative="1" as="geometry">
            <Array as="points">
              <mxPoint x="1002" y="997" />
            </Array>
          </mxGeometry>
        </mxCell>
        <mxCell id="SrfD6AW7B3wNPBuTBkw3-37" value="clica em Salvar" style="verticalAlign=bottom;edgeStyle=elbowEdgeStyle;elbow=vertical;curved=0;rounded=0;endArrow=block;" edge="1" parent="1" source="SrfD6AW7B3wNPBuTBkw3-1" target="SrfD6AW7B3wNPBuTBkw3-8">
          <mxGeometry relative="1" as="geometry">
            <Array as="points">
              <mxPoint x="1002" y="1049" />
            </Array>
          </mxGeometry>
        </mxCell>
        <mxCell id="SrfD6AW7B3wNPBuTBkw3-38" value="saveGrupoDePersonagens(id, nome, membros)" style="verticalAlign=bottom;edgeStyle=elbowEdgeStyle;elbow=vertical;curved=0;rounded=0;endArrow=block;" edge="1" parent="1" source="SrfD6AW7B3wNPBuTBkw3-8" target="SrfD6AW7B3wNPBuTBkw3-12">
          <mxGeometry relative="1" as="geometry">
            <Array as="points">
              <mxPoint x="1826" y="1101" />
            </Array>
          </mxGeometry>
        </mxCell>
        <mxCell id="SrfD6AW7B3wNPBuTBkw3-39" value="save(grupoPersonagens)" style="verticalAlign=bottom;edgeStyle=elbowEdgeStyle;elbow=vertical;curved=0;rounded=0;endArrow=block;" edge="1" parent="1" source="SrfD6AW7B3wNPBuTBkw3-12" target="SrfD6AW7B3wNPBuTBkw3-16">
          <mxGeometry relative="1" as="geometry">
            <Array as="points">
              <mxPoint x="2255" y="1202" />
            </Array>
          </mxGeometry>
        </mxCell>
        <mxCell id="SrfD6AW7B3wNPBuTBkw3-40" value="void" style="verticalAlign=bottom;edgeStyle=elbowEdgeStyle;elbow=vertical;curved=0;rounded=0;dashed=1;dashPattern=2 3;endArrow=block;" edge="1" parent="1" source="SrfD6AW7B3wNPBuTBkw3-14" target="SrfD6AW7B3wNPBuTBkw3-12">
          <mxGeometry relative="1" as="geometry">
            <Array as="points">
              <mxPoint x="2256" y="1254" />
            </Array>
          </mxGeometry>
        </mxCell>
        <mxCell id="SrfD6AW7B3wNPBuTBkw3-41" value="fetchTodosOsGrupos()" style="curved=1;endArrow=block;rounded=0;" edge="1" parent="1" source="SrfD6AW7B3wNPBuTBkw3-12" target="SrfD6AW7B3wNPBuTBkw3-12">
          <mxGeometry relative="1" as="geometry">
            <Array as="points">
              <mxPoint x="2071" y="1306" />
              <mxPoint x="2071" y="1336" />
            </Array>
          </mxGeometry>
        </mxCell>
        <mxCell id="SrfD6AW7B3wNPBuTBkw3-42" value="getAll()" style="verticalAlign=bottom;edgeStyle=elbowEdgeStyle;elbow=vertical;curved=0;rounded=0;endArrow=block;" edge="1" parent="1" source="SrfD6AW7B3wNPBuTBkw3-9" target="SrfD6AW7B3wNPBuTBkw3-21">
          <mxGeometry relative="1" as="geometry">
            <Array as="points">
              <mxPoint x="2255" y="1532" />
            </Array>
          </mxGeometry>
        </mxCell>
        <mxCell id="SrfD6AW7B3wNPBuTBkw3-43" value="listaDeInimigos" style="verticalAlign=bottom;edgeStyle=elbowEdgeStyle;elbow=vertical;curved=0;rounded=0;dashed=1;dashPattern=2 3;endArrow=block;" edge="1" parent="1" source="SrfD6AW7B3wNPBuTBkw3-21" target="SrfD6AW7B3wNPBuTBkw3-9">
          <mxGeometry relative="1" as="geometry">
            <Array as="points">
              <mxPoint x="2256" y="1584" />
            </Array>
          </mxGeometry>
        </mxCell>
        <mxCell id="SrfD6AW7B3wNPBuTBkw3-44" value="preencheNome() e selecionaMembros()" style="verticalAlign=bottom;edgeStyle=elbowEdgeStyle;elbow=vertical;curved=0;rounded=0;endArrow=block;" edge="1" parent="1" source="SrfD6AW7B3wNPBuTBkw3-1" target="SrfD6AW7B3wNPBuTBkw3-9">
          <mxGeometry relative="1" as="geometry">
            <Array as="points">
              <mxPoint x="1002" y="1636" />
            </Array>
          </mxGeometry>
        </mxCell>
        <mxCell id="SrfD6AW7B3wNPBuTBkw3-45" value="clica em Salvar" style="verticalAlign=bottom;edgeStyle=elbowEdgeStyle;elbow=vertical;curved=0;rounded=0;endArrow=block;" edge="1" parent="1" source="SrfD6AW7B3wNPBuTBkw3-1" target="SrfD6AW7B3wNPBuTBkw3-9">
          <mxGeometry relative="1" as="geometry">
            <Array as="points">
              <mxPoint x="1002" y="1688" />
            </Array>
          </mxGeometry>
        </mxCell>
        <mxCell id="SrfD6AW7B3wNPBuTBkw3-46" value="saveGrupoDeInimigos(id, nome, membros)" style="verticalAlign=bottom;edgeStyle=elbowEdgeStyle;elbow=vertical;curved=0;rounded=0;endArrow=block;" edge="1" parent="1" source="SrfD6AW7B3wNPBuTBkw3-9" target="SrfD6AW7B3wNPBuTBkw3-13">
          <mxGeometry relative="1" as="geometry">
            <Array as="points">
              <mxPoint x="1826" y="1740" />
            </Array>
          </mxGeometry>
        </mxCell>
        <mxCell id="SrfD6AW7B3wNPBuTBkw3-47" value="save(grupoInimigos)" style="verticalAlign=bottom;edgeStyle=elbowEdgeStyle;elbow=vertical;curved=0;rounded=0;endArrow=block;" edge="1" parent="1" source="SrfD6AW7B3wNPBuTBkw3-13" target="SrfD6AW7B3wNPBuTBkw3-17">
          <mxGeometry relative="1" as="geometry">
            <Array as="points">
              <mxPoint x="2255" y="1841" />
            </Array>
          </mxGeometry>
        </mxCell>
        <mxCell id="SrfD6AW7B3wNPBuTBkw3-48" value="void" style="verticalAlign=bottom;edgeStyle=elbowEdgeStyle;elbow=vertical;curved=0;rounded=0;dashed=1;dashPattern=2 3;endArrow=block;" edge="1" parent="1" source="SrfD6AW7B3wNPBuTBkw3-14" target="SrfD6AW7B3wNPBuTBkw3-13">
          <mxGeometry relative="1" as="geometry">
            <Array as="points">
              <mxPoint x="2256" y="1893" />
            </Array>
          </mxGeometry>
        </mxCell>
        <mxCell id="SrfD6AW7B3wNPBuTBkw3-49" value="fetchTodosOsGrupos()" style="curved=1;endArrow=block;rounded=0;" edge="1" parent="1" source="SrfD6AW7B3wNPBuTBkw3-13" target="SrfD6AW7B3wNPBuTBkw3-13">
          <mxGeometry relative="1" as="geometry">
            <Array as="points">
              <mxPoint x="2071" y="1945" />
              <mxPoint x="2071" y="1975" />
            </Array>
          </mxGeometry>
        </mxCell>
        <mxCell id="SrfD6AW7B3wNPBuTBkw3-50" value="UsuÃ¡rio na tela de Gerenciar Grupos." style="fillColor=#ffff88;strokeColor=#9E916F;" vertex="1" parent="1">
          <mxGeometry x="350" y="185" width="1290" height="49" as="geometry" />
        </mxCell>
        <mxCell id="SrfD6AW7B3wNPBuTBkw3-51" value="Recarrega a lista para remover o grupo deletado da UI." style="fillColor=#ffff88;strokeColor=#9E916F;" vertex="1" parent="1">
          <mxGeometry x="2041" y="570" width="407" height="49" as="geometry" />
        </mxCell>
        <mxCell id="SrfD6AW7B3wNPBuTBkw3-52" value="UI exibe pop-up de escolha." style="fillColor=#ffff88;strokeColor=#9E916F;" vertex="1" parent="1">
          <mxGeometry x="1506" y="717" width="218" height="49" as="geometry" />
        </mxCell>
        <mxCell id="SrfD6AW7B3wNPBuTBkw3-53" value="Navega para a tela de Criar Grupo de Personagens." style="fillColor=#ffff88;strokeColor=#9E916F;" vertex="1" parent="1">
          <mxGeometry x="1425" y="812" width="380" height="49" as="geometry" />
        </mxCell>
        <mxCell id="SrfD6AW7B3wNPBuTBkw3-54" value="ConstrÃ³i &#39;Grupo&lt;Personagem&gt;&#39;." style="fillColor=#ffff88;strokeColor=#9E916F;" vertex="1" parent="1">
          <mxGeometry x="1892" y="1121" width="248" height="49" as="geometry" />
        </mxCell>
        <mxCell id="SrfD6AW7B3wNPBuTBkw3-55" value="Recarrega a lista para exibir o novo grupo." style="fillColor=#ffff88;strokeColor=#9E916F;" vertex="1" parent="1">
          <mxGeometry x="2041" y="1356" width="318" height="49" as="geometry" />
        </mxCell>
        <mxCell id="SrfD6AW7B3wNPBuTBkw3-56" value="Navega para a tela de Criar Grupo de Inimigos." style="fillColor=#ffff88;strokeColor=#9E916F;" vertex="1" parent="1">
          <mxGeometry x="1440" y="1451" width="351" height="49" as="geometry" />
        </mxCell>
        <mxCell id="SrfD6AW7B3wNPBuTBkw3-57" value="ConstrÃ³i &#39;Grupo&lt;Inimigo&gt;&#39;." style="fillColor=#ffff88;strokeColor=#9E916F;" vertex="1" parent="1">
          <mxGeometry x="1909" y="1760" width="215" height="49" as="geometry" />
        </mxCell>
        <mxCell id="SrfD6AW7B3wNPBuTBkw3-58" value="Recarrega a lista para exibir o novo grupo." style="fillColor=#ffff88;strokeColor=#9E916F;" vertex="1" parent="1">
          <mxGeometry x="2041" y="1995" width="318" height="49" as="geometry" />
        </mxCell>
      </root>
    </mxGraphModel>
  </diagram>
</mxfile>
